<svg width="1750.0000000000002" height="600" xmlns="http://www.w3.org/2000/svg" fill="none">
 <g>
  <title>Layer 1</title>
  <path d="m217.22259,598.11239l60,25.511l0,88.989l-60,-26l0,-88.5z" fill="white" id="svg_11"/>
  <rect id="svg_22" height="1094.99712" width="2264.99405" y="-58.63484" x="-200.90594" stroke="#000" fill="#fff"/>
  <g stroke="null" id="svg_44">
   <path stroke="null" d="m820.56053,289.43987c-1.75959,0 -3.24442,-0.49718 -4.45449,-1.49206c-1.18259,-1.0212 -1.77361,-2.35211 -1.77361,-3.99163l0,-46.89471c0,-1.42464 0.35719,-2.74184 1.07213,-3.95161c0.74242,-1.20977 1.73267,-2.16409 2.97022,-2.86298c1.23755,-0.72575 2.58499,-1.08863 4.04235,-1.08863c1.26502,0 2.44706,0.25544 3.54722,0.76577c1.12764,0.51088 2.06239,1.22347 2.8048,2.13723l17.77815,21.85471l17.98394,-21.85471c0.71494,-0.88691 1.62221,-1.58579 2.72237,-2.09667c1.10017,-0.53773 2.26874,-0.80632 3.50629,-0.80632c1.48483,0 2.84574,0.36288 4.08328,1.08863c1.23755,0.69889 2.21379,1.66638 2.92872,2.903c0.74242,1.20977 1.11362,2.52697 1.11362,3.95161l0,46.8547c0,1.63952 -0.60503,2.97042 -1.81454,3.99163c-1.18259,0.99489 -2.65396,1.49206 -4.41355,1.49206c-1.76015,0 -3.24499,-0.49718 -4.45505,-1.49206c-1.18259,-1.0212 -1.77361,-2.35211 -1.77361,-3.99163l0,-35.84677c-5.93988,7.15061 -10.55979,12.35199 -13.85916,15.60471c-0.85288,0.83373 -1.8151,1.4652 -2.88779,1.8955c-1.04465,0.40289 -2.08987,0.60461 -3.13451,0.60461c-2.08987,0 -3.94646,-0.75261 -5.56867,-2.25783c-1.7052,-1.6132 -3.72609,-3.73673 -6.06325,-6.37114c-2.33771,-2.66127 -5.04607,-5.8334 -8.12619,-9.51587l0,35.88678c0,1.63952 -0.60503,2.97042 -1.8151,3.99163c-1.18203,0.99489 -2.6534,1.49206 -4.41355,1.49206l-0.00004,0z" fill="#484848" id="svg_24"/>
   <path stroke="null" d="m909.86453,289.39931c-4.53691,0 -8.59329,-0.98118 -12.16798,-2.94356c-3.5747,-1.98923 -6.36604,-4.74423 -8.37347,-8.26554c-2.00744,-3.52186 -3.01115,-7.51348 -3.01115,-11.97597c0,-4.46248 1.00372,-8.44095 3.01115,-11.9354c2.00744,-3.52131 4.79878,-6.26315 8.37347,-8.22553c3.5747,-1.96238 7.63106,-2.94356 12.16798,-2.94356c4.53748,0 8.57983,0.98118 12.12704,2.94356c3.5747,1.96238 6.35202,4.70422 8.33198,8.22553c2.00744,3.49445 3.01115,7.47292 3.01115,11.9354c0,4.46248 -1.00372,8.45411 -3.01115,11.97597c-1.97996,3.52131 -4.75729,6.27631 -8.33198,8.26554c-3.54722,1.96238 -7.58957,2.94356 -12.12704,2.94356zm0,-10.24162c2.19977,0 4.16627,-0.55089 5.89838,-1.65322c1.73267,-1.10232 3.08012,-2.63441 4.04235,-4.59678c0.99026,-1.96238 1.48483,-4.19334 1.48483,-6.69345c0,-2.47325 -0.49457,-4.69106 -1.48483,-6.65288c-0.96223,-1.96238 -2.30968,-3.48129 -4.04235,-4.55677c-1.73211,-1.10232 -3.69862,-1.65322 -5.89838,-1.65322c-2.22725,0 -4.22122,0.55089 -5.98082,1.65322c-1.73267,1.07547 -3.09358,2.59439 -4.08384,4.55677c-0.96223,1.96183 -1.44334,4.17963 -1.44334,6.65288c0,2.50011 0.48111,4.73108 1.44334,6.69345c0.99026,1.96238 2.35117,3.49445 4.08384,4.59678c1.75959,1.10232 3.75357,1.65322 5.98082,1.65322z" fill="#484848" id="svg_25"/>
   <path stroke="null" d="m949.8355,259.52079c0.05495,-3.01098 0.67401,-5.76598 1.8566,-8.26609c1.18203,-2.50011 2.90069,-4.47564 5.15597,-5.92713c2.25472,-1.47891 4.9356,-2.21781 8.0432,-2.21781c5.00457,0 7.50714,1.8818 7.50714,5.64484c0,0.99489 -0.20635,1.92236 -0.61849,2.78241c-0.4127,0.86005 -1.00372,1.54578 -1.77361,2.05666c-0.77045,0.48347 -1.6637,0.68518 -2.68144,0.60461c-1.04465,-0.05372 -1.85603,-0.08057 -2.4336,-0.08057c-3.65712,0 -6.68229,0.63147 -9.0744,1.89495c-2.39266,1.26348 -3.54778,3.33329 -3.46479,6.20998l-2.51658,-2.70183l-0.00001,-0.00002zm2.51658,24.47541c0,1.58634 -0.57755,2.88984 -1.73267,3.91159c-1.15512,1.0212 -2.57098,1.53207 -4.2487,1.53207c-1.70464,0 -3.13451,-0.51088 -4.28963,-1.53207c-1.15512,-1.02175 -1.73267,-2.32525 -1.73267,-3.91159l-0.04093,-35.88678c0,-1.55893 0.57755,-2.78186 1.73211,-3.66931c1.15512,-0.91377 2.59901,-1.37093 4.33112,-1.37093c1.7052,0 3.12106,0.45716 4.2487,1.37093c1.12764,0.88745 1.69118,2.11038 1.69118,3.66931l0.04149,35.88678z" fill="#484848" id="svg_26"/>
   <path stroke="null" d="m991.49821,289.39931c-3.16255,0 -5.91241,-0.56404 -8.25011,-1.69323c-2.30968,-1.12918 -4.08328,-2.72868 -5.32083,-4.7985c-1.23755,-2.09667 -1.85603,-4.54306 -1.85603,-7.33863c0,-2.47325 0.74242,-4.78479 2.22725,-6.93518c1.48483,-2.1778 3.61619,-4.01903 6.39352,-5.52425c2.77733,-1.53207 6.03577,-2.58068 9.77587,-3.14528c1.45735,-0.21488 3.29994,-0.32231 5.52718,-0.32231c1.76015,0 3.46479,0.06688 5.11504,0.20117c1.29194,0.10798 2.40612,0.56459 3.34087,1.37093c0.93475,0.78002 1.4024,1.77436 1.4024,2.98413c0,0.69889 -0.1099,1.39778 -0.32971,2.09667c-0.19289,0.69889 -0.49513,1.25032 -0.90783,1.65322c-0.35719,0.34972 -0.79737,0.59145 -1.31997,0.72575c-0.52204,0.1343 -1.05867,0.17486 -1.60875,0.12114c-1.09961,-0.1343 -2.46107,-0.20172 -4.08328,-0.20172c-2.47509,0 -4.66085,0.16116 -6.55837,0.48402c-2.11734,0.37603 -3.79506,1.10178 -5.03261,2.17725c-1.23699,1.07547 -1.85603,2.51327 -1.85603,4.31448c0,1.53207 0.53606,2.71498 1.60875,3.54817c1.07269,0.80688 2.58499,1.20977 4.53748,1.20977c2.19977,0 4.28963,-0.38973 6.2696,-1.1692c1.97996,-0.80632 3.6846,-1.68007 5.11448,-2.6207c0.33027,-0.24228 0.90783,-0.36343 1.73267,-0.36343c0.7699,0 1.44389,0.33602 2.02089,1.00859c0.57755,0.67203 0.86634,1.41093 0.86634,2.21727c0,0.51088 -0.1099,0.95432 -0.32971,1.33091c-0.7699,1.42464 -2.08987,2.80927 -3.95992,4.15333c-1.84258,1.3172 -4.04235,2.40583 -6.59987,3.26588c-2.55752,0.83318 -5.19691,1.24978 -7.91928,1.24978l-0.00002,0zm-12.08611,-37.86231c0,-1.3172 0.34373,-2.43268 1.0312,-3.347c0.71494,-0.94063 1.65024,-1.65322 2.8048,-2.13668c1.87005,-0.77947 4.08384,-1.43834 6.64136,-1.97607c2.58499,-0.56459 4.64739,-0.87375 6.18717,-0.92747c6.32455,-0.18802 11.24669,1.02175 14.76643,3.62929c3.5203,2.60754 5.58269,6.62603 6.18773,12.05599c0.19233,1.69378 0.30224,3.40072 0.32971,5.12136c0.05495,1.69323 0.08243,3.68247 0.08243,5.9677l0,14.8384c0,1.53207 -0.56354,2.70127 -1.69118,3.50816c-1.09961,0.77947 -2.5435,1.1692 -4.33112,1.1692c-1.78706,0 -3.24442,-0.38973 -4.37206,-1.1692c-1.10017,-0.80688 -1.65024,-1.97607 -1.65024,-3.50816l0,-14.35494c0,-0.45661 0.04149,-1.04806 0.12392,-1.77381c0.19233,-1.82807 0.28878,-3.29328 0.28878,-4.39506c0,-2.68868 -0.39868,-4.98652 -1.19605,-6.89517c-0.57755,-1.45205 -1.69118,-2.48695 -3.34143,-3.10527c-1.64968,-0.61777 -3.5747,-0.90006 -5.77446,-0.84634c-1.12764,0.02686 -2.46107,0.25544 -4.00085,0.68518c-1.54034,0.4303 -3.259,0.99489 -5.15653,1.69378c-0.65942,0.24173 -1.30596,0.36288 -1.93846,0.36288c-1.34745,0 -2.51603,-0.41659 -3.50629,-1.25032c-0.9897,-0.86005 -1.48483,-1.97553 -1.48483,-3.34645l-0.00001,-0.00001z" fill="#484848" id="svg_27"/>
   <path stroke="null" d="m1064.95972,289.43987c-1.72707,0 -3.17377,-0.4303 -4.32889,-1.29034c-1.12708,-0.88691 -1.68782,-2.11038 -1.68782,-3.66931l0,-50.80576c0,-1.55948 0.56074,-2.79611 1.68782,-3.70988c1.15512,-0.91377 2.60182,-1.37093 4.32889,-1.37093c1.73267,0 3.16255,0.45716 4.29524,1.37093c1.14951,0.91377 1.72707,2.15039 1.72707,3.70988l0,50.80576c0,1.55893 -0.57755,2.78241 -1.72707,3.66931c-1.13269,0.86005 -2.56256,1.29034 -4.29524,1.29034zm-1.85603,-17.54023c0,2.66127 -0.70092,5.33623 -2.10276,8.02436c-1.40184,2.68813 -3.51582,4.93279 -6.35314,6.73347c-2.83172,1.80122 -6.26904,2.70183 -10.31194,2.70183c-3.9588,0.02686 -7.43536,-0.82003 -10.43531,-2.54068c-2.96629,-1.72009 -5.31915,-4.26022 -7.05126,-7.62037c-1.7052,-3.3607 -2.63995,-7.41975 -2.8048,-12.17769c-0.13738,-4.3545 0.64596,-8.35983 2.35117,-12.01598c1.73211,-3.65561 4.16852,-6.54545 7.30303,-8.66898c3.13451,-2.15093 6.63912,-3.22586 10.51381,-3.22586c5.28214,0 9.5157,1.49206 12.70629,4.47564c3.21863,2.95672 5.11392,7.79578 5.69147,14.51608c0.05607,0.59145 -0.09533,1.20977 -0.45419,1.85493c-0.33083,0.64518 -0.74017,0.96748 -1.23362,0.96748c-0.47102,0 -0.92522,-0.10743 -1.36259,-0.32231c-0.41495,-0.24228 -0.61681,-0.53773 -0.61681,-0.88745c0,-1.77381 -0.48224,-3.45389 -1.4467,-5.04023c-0.93643,-1.61266 -2.29341,-2.9167 -4.08216,-3.91104c-1.78875,-1.02175 -3.8803,-1.53263 -6.26904,-1.53263c-1.9794,0 -3.82422,0.60516 -5.52886,1.81493c-1.6766,1.18236 -3.02237,2.80872 -4.04291,4.87908c-0.9869,2.04295 -1.48595,4.28708 -1.48595,6.73347c0,2.60754 0.44298,4.90593 1.32334,6.89517c0.90279,1.98923 2.18687,3.54817 3.83544,4.67736c1.6766,1.10232 3.62796,1.65322 5.85409,1.65322c2.33827,0 4.40178,-0.45716 6.19053,-1.37093c1.78314,-0.94063 3.16255,-2.19095 4.12141,-3.74989c0.9925,-1.58634 1.48595,-3.30643 1.48595,-5.16138c0,-0.37603 0.17943,-0.68518 0.53831,-0.92747c0.3813,-0.24173 0.80746,-0.36288 1.27848,-0.36288c0.40934,0 0.79624,0.21488 1.15512,0.64518c0.35888,0.40344 0.64484,0.88691 0.86353,1.4515c0.24672,0.56459 0.37009,1.06177 0.37009,1.49206l0,-0.00001z" fill="#484848" id="svg_28"/>
   <path stroke="null" d="m1092.97411,289.39931c-3.16255,0 -5.91577,-0.56404 -8.25404,-1.69323c-2.31024,-1.12918 -4.08216,-2.72868 -5.32139,-4.7985c-1.23362,-2.09667 -1.85603,-4.54306 -1.85603,-7.33863c0,-2.47325 0.74578,-4.78479 2.23173,-6.93518c1.48034,-2.1778 3.61675,-4.01903 6.3924,-5.52425c2.77565,-1.53207 6.03352,-2.58068 9.77363,-3.14528c1.45791,-0.21488 3.30274,-0.32231 5.52886,-0.32231c1.76072,0 3.46535,0.06688 5.11392,0.20117c1.2953,0.10798 2.40556,0.56459 3.34199,1.37093c0.93643,0.78002 1.40184,1.77436 1.40184,2.98413c0,0.69889 -0.11215,1.39778 -0.33083,2.09667c-0.19065,0.69889 -0.49345,1.25032 -0.90839,1.65322c-0.35326,0.34972 -0.79624,0.59145 -1.31773,0.72575c-0.52148,0.1343 -1.05979,0.17486 -1.60931,0.12114c-1.09905,-0.1343 -2.46163,-0.20172 -4.08216,-0.20172c-2.47846,0 -4.65972,0.16116 -6.56061,0.48402c-2.11398,0.37603 -3.79618,1.10178 -5.0298,2.17725c-1.23922,1.07547 -1.85603,2.51327 -1.85603,4.31448c0,1.53207 0.5327,2.71498 1.60931,3.54817c1.07101,0.80688 2.58499,1.20977 4.53635,1.20977c2.19808,0 4.28963,-0.38973 6.26904,-1.1692c1.9794,-0.80632 3.68404,-1.68007 5.11392,-2.6207c0.33083,-0.24228 0.90839,-0.36343 1.73267,-0.36343c0.76821,0 1.4411,0.33602 2.01865,1.00859c0.57755,0.67203 0.86914,1.41093 0.86914,2.21727c0,0.51088 -0.11215,0.95432 -0.33083,1.33091c-0.76821,1.42464 -2.09155,2.80927 -3.9588,4.15333c-1.84482,1.3172 -4.04291,2.40583 -6.59987,3.26588c-2.55696,0.83318 -5.19802,1.24978 -7.9176,1.24978l-0.00003,0zm-12.08948,-37.86231c0,-1.3172 0.34766,-2.43268 1.03176,-3.347c0.71774,-0.94063 1.64857,-1.65322 2.80368,-2.13668c1.87286,-0.77947 4.08777,-1.43834 6.64473,-1.97607c2.58499,-0.56459 4.6429,-0.87375 6.18492,-0.92747c6.32511,-0.18802 11.24837,1.02175 14.7698,3.62929c3.51582,2.60754 5.57933,6.62603 6.18492,12.05599c0.19065,1.69378 0.30279,3.40072 0.33083,5.12136c0.05607,1.69323 0.08411,3.68247 0.08411,5.9677l0,14.8384c0,1.53207 -0.56634,2.70127 -1.69343,3.50816c-1.09905,0.77947 -2.54574,1.1692 -4.32889,1.1692c-1.78875,0 -3.24666,-0.38973 -4.37375,-1.1692c-1.09905,-0.80688 -1.64857,-1.97607 -1.64857,-3.50816l0,-14.35494c0,-0.45661 0.03926,-1.04806 0.12336,-1.77381c0.19065,-1.82807 0.28598,-3.29328 0.28598,-4.39506c0,-2.68868 -0.39812,-4.98652 -1.19437,-6.89517c-0.57755,-1.45205 -1.69343,-2.48695 -3.34199,-3.10527c-1.64857,-0.61777 -3.5775,-0.90006 -5.77559,-0.84634c-1.12708,0.02686 -2.46163,0.25544 -3.99805,0.68518c-1.54203,0.4303 -3.26349,0.99489 -5.15878,1.69378c-0.66167,0.24173 -1.30652,0.36288 -1.94015,0.36288c-1.34577,0 -2.5121,-0.41659 -3.5046,-1.25032c-0.9869,-0.86005 -1.48595,-1.97553 -1.48595,-3.34645l0.00002,-0.00001z" fill="#484848" id="svg_29"/>
   <path stroke="null" d="m1130.47055,286.69803c-0.28036,0.72575 -0.72896,1.29034 -1.36259,1.69323c-0.63363,0.37657 -1.33455,0.53773 -2.10276,0.48402c-0.9925,-0.05372 -1.78875,-0.30916 -2.39434,-0.76632c-0.6056,-0.45661 -0.9196,-1.11548 -0.94764,-1.97553c0,-0.56459 0.09533,-1.04861 0.28598,-1.4515l22.6874,-53.387c0.24672,-0.56404 0.64484,-1.00805 1.19437,-1.33036c0.55513,-0.34972 1.15512,-0.52403 1.81679,-0.52403c0.33083,0 0.70092,0.06688 1.11586,0.20172c0.71214,0.21488 1.23362,0.56404 1.56446,1.04806c0.35888,0.45716 0.53831,1.00805 0.53831,1.65322c0,0.51088 -0.12336,1.07547 -0.37009,1.69378l-22.02573,52.6607l-0.00003,0.00002zm2.47284,-17.21792c0,-0.80632 0.28598,-1.49152 0.86353,-2.05611c0.57755,-0.59145 1.30652,-0.88745 2.18687,-0.88745l27.6387,0c0.88036,0 1.60931,0.2823 2.18687,0.84689c0.57755,0.56459 0.86353,1.26348 0.86353,2.09667c0,0.83373 -0.28598,1.53263 -0.86353,2.09722c-0.57755,0.56404 -1.30652,0.84634 -2.18687,0.84634l-27.6387,0c-0.88036,0 -1.60931,-0.2823 -2.18687,-0.84634c-0.57755,-0.59145 -0.86353,-1.29034 -0.86353,-2.09722zm14.14738,-35.44278c-0.27476,-0.72575 -0.41495,-1.33091 -0.41495,-1.81493c0,-0.61831 0.16822,-1.14234 0.49905,-1.57209c0.33083,-0.45716 0.82428,-0.79318 1.48595,-1.00805c0.40934,-0.13484 0.77943,-0.20172 1.11026,-0.20172c0.66167,0 1.26726,0.17431 1.81679,0.52403c0.57755,0.32231 1.00372,0.76632 1.27848,1.33036l23.42757,53.387c0.19065,0.56459 0.29158,1.08863 0.29158,1.57264c0,0.83318 -0.30279,1.46466 -0.90839,1.89495c-0.6056,0.4303 -1.39062,0.67203 -2.3551,0.72575c-0.79624,0.05372 -1.5252,-0.10743 -2.18127,-0.48402c-0.63363,-0.40289 -1.10465,-0.96748 -1.40745,-1.69323l-22.64254,-52.6607l0.00001,0z" fill="#484848" id="svg_30"/>
   <path stroke="null" d="m1184.87319,304.56056c-1.04297,0 -1.89529,-0.26859 -2.55696,-0.80632c-0.65606,-0.51088 -0.9869,-1.24978 -0.9869,-2.21781l0,-53.99161c0,-0.99434 0.33083,-1.76066 0.9869,-2.29839c0.66167,-0.53718 1.51398,-0.80632 2.55696,-0.80632c1.02054,0 1.85603,0.2823 2.5177,0.84689c0.66167,0.53773 0.9925,1.29034 0.9925,2.25783l0,53.99161c0,0.96803 -0.33083,1.70693 -0.9925,2.21781c-0.66167,0.53773 -1.49717,0.80632 -2.5177,0.80632zm0.78503,-30.48368c-0.02804,-0.10743 -0.03926,-0.26859 -0.03926,-0.48347c0,-0.53773 0.09533,-1.03491 0.28598,-1.49206c0.22429,-0.48402 0.49905,-0.77947 0.82428,-0.88691c0.16822,-0.05427 0.29158,-0.08112 0.37569,-0.08112c0.30279,0 0.58877,0.10798 0.86353,0.32286c0.27476,0.18802 0.42616,0.45716 0.45419,0.80632c0.30279,2.33895 1.11586,4.38191 2.4336,6.12886c1.31773,1.72064 2.97191,3.03784 4.9513,3.95161c2.00744,0.91432 4.13823,1.37093 6.3924,1.37093c2.64107,0 5.00737,-0.64518 7.09331,-1.93552c2.11958,-1.3172 3.76815,-3.17159 4.9513,-5.56426c1.18315,-2.39268 1.77193,-5.16138 1.77193,-8.30611c0,-3.36016 -0.58877,-6.37114 -1.77193,-9.0324c-1.15512,-2.68813 -2.77565,-4.78479 -4.86719,-6.29001c-2.06351,-1.53263 -4.42982,-2.29839 -7.09331,-2.29839c-2.45042,0 -4.67654,0.52403 -6.68398,1.57209c-2.00744,1.04861 -3.64479,2.51381 -4.90644,4.39561c-1.26726,1.85439 -2.03548,3.9379 -2.31024,6.24945c-0.05607,0.40344 -0.27476,0.71259 -0.66167,0.92747c-0.38691,0.18857 -0.74017,0.25544 -1.07101,0.20172c-0.33083,-0.05372 -0.57755,-0.30916 -0.74578,-0.76632c-0.16262,-0.45661 -0.21869,-0.92692 -0.16262,-1.41093c0.38691,-3.27958 1.37381,-6.19628 2.97191,-8.75011c1.59249,-2.58068 3.66722,-4.58308 6.22418,-6.00772c2.55696,-1.45205 5.43354,-2.1778 8.62412,-2.1778c3.71208,0 7.05407,0.99489 10.02036,2.98413c2.97191,1.98923 5.29335,4.74478 6.96995,8.26609c1.68221,3.52131 2.5177,7.47292 2.5177,11.85483c0,4.48879 -0.82428,8.35983 -2.47284,11.61254c-1.62613,3.22586 -3.89151,5.6854 -6.80734,7.37918c-2.91582,1.69323 -6.25782,2.55383 -10.02036,2.58068c-3.33077,0 -6.28585,-0.64518 -8.87085,-1.93552c-2.58499,-1.3172 -4.67654,-3.11842 -6.26904,-5.40311c-1.57006,-2.28523 -2.55696,-4.87908 -2.97191,-7.78263l0.00003,0.00001z" fill="#484848" id="svg_31"/>
   <path stroke="null" d="m1233.58997,304.56056c-1.04297,0 -1.89529,-0.26859 -2.55696,-0.80632c-0.66167,-0.51088 -0.9869,-1.24978 -0.9869,-2.21781l0,-53.99161c0,-0.99434 0.32523,-1.76066 0.9869,-2.29839c0.66167,-0.53718 1.51398,-0.80632 2.55696,-0.80632c1.02054,0 1.85603,0.2823 2.5177,0.84689c0.66167,0.53773 0.9925,1.29034 0.9925,2.25783l0,53.99161c0,0.96803 -0.33083,1.70693 -0.9925,2.21781c-0.66167,0.53773 -1.49717,0.80632 -2.5177,0.80632zm0.78503,-30.48368c-0.02804,-0.10743 -0.03926,-0.26859 -0.03926,-0.48347c0,-0.53773 0.09533,-1.03491 0.28598,-1.49206c0.21869,-0.48402 0.49345,-0.77947 0.82428,-0.88691c0.16822,-0.05427 0.29158,-0.08112 0.37009,-0.08112c0.30279,0 0.59438,0.10798 0.86914,0.32286c0.27476,0.18802 0.42616,0.45716 0.45419,0.80632c0.30279,2.33895 1.11026,4.38191 2.4336,6.12886c1.31773,1.72064 2.97191,3.03784 4.9513,3.95161c2.00744,0.91432 4.13823,1.37093 6.3924,1.37093c2.64107,0 5.00177,-0.64518 7.09331,-1.93552c2.11958,-1.3172 3.76815,-3.17159 4.9513,-5.56426c1.18315,-2.39268 1.77193,-5.16138 1.77193,-8.30611c0,-3.36016 -0.58877,-6.37114 -1.77193,-9.0324c-1.15512,-2.68813 -2.78125,-4.78479 -4.86719,-6.29001c-2.06351,-1.53263 -4.42982,-2.29839 -7.09331,-2.29839c-2.45042,0 -4.67654,0.52403 -6.68398,1.57209c-2.00744,1.04861 -3.64479,2.51381 -4.91206,4.39561c-1.26165,1.85439 -2.02986,3.9379 -2.30463,6.24945c-0.05607,0.40344 -0.28036,0.71259 -0.66167,0.92747c-0.38691,0.18857 -0.74578,0.25544 -1.07101,0.20172c-0.33083,-0.05372 -0.57755,-0.30916 -0.74578,-0.76632c-0.16262,-0.45661 -0.21869,-0.92692 -0.16262,-1.41093c0.3813,-3.27958 1.37381,-6.19628 2.96629,-8.75011c1.5981,-2.58068 3.67282,-4.58308 6.22978,-6.00772c2.55696,-1.45205 5.43354,-2.1778 8.62412,-2.1778c3.71208,0 7.04845,0.99489 10.02036,2.98413c2.97191,1.98923 5.29335,4.74478 6.96995,8.26609c1.6766,3.52131 2.5177,7.47292 2.5177,11.85483c0,4.48879 -0.82428,8.35983 -2.47284,11.61254c-1.62613,3.22586 -3.89151,5.6854 -6.80734,7.37918c-2.91582,1.69323 -6.25782,2.55383 -10.02596,2.58068c-3.32517,0 -6.28025,-0.64518 -8.86524,-1.93552c-2.58499,-1.3172 -4.67654,-3.11842 -6.26904,-5.40311c-1.57006,-2.28523 -2.55696,-4.87908 -2.97191,-7.78263l0.00005,0.00001z" fill="#484848" id="svg_32"/>
   <path stroke="null" fill-rule="evenodd" clip-rule="evenodd" d="m628.0003,343.32897l0,-200.70484l-158.68839,144.71139l0,89.6098l158.68839,66.61328l0,-98.11926l0,-2.11038l0,0.00001z" fill="#7F64FD" id="svg_33"/>
   <path stroke="null" d="m570.24445,264.86141l31.95076,7.12594l0,37.8223l-31.95076,-8.77038l0,-36.17785l0,-0.00001z" fill="white" id="svg_34"/>
   <path stroke="null" d="m642.70405,142.3506l121.93101,-66.87401l0,309.15598l-121.93101,60.84457l0,-303.12652l0,-0.00001z" fill="#7F64FD" id="svg_35"/>
   <rect stroke="null" width="62.7717" height="37.663" transform="matrix(0.485612 -0.274074 1.23533e-8 0.548149 242.919 146.254)" fill="white" id="svg_36" y="525.45688" x="871.50159"/>
   <path stroke="null" d="m666.13037,278.00602l30.48275,-17.20421l0,20.64549l-30.48275,17.20421l0,-20.64549z" fill="white" id="svg_37"/>
   <rect stroke="null" width="62.7717" height="37.663" transform="matrix(0.485612 -0.274074 1.23533e-8 0.548149 242.919 180.662)" fill="white" id="svg_38" y="525.45688" x="871.50159"/>
   <rect stroke="null" width="62.7717" height="37.663" transform="matrix(0.485612 -0.274074 1.23533e-8 0.548149 242.919 263.242)" fill="white" id="svg_39" y="525.45688" x="871.50159"/>
   <rect stroke="null" width="62.7717" height="37.663" transform="matrix(0.485612 -0.274074 1.23533e-8 0.548149 285.596 122.168)" fill="white" id="svg_40" y="525.45688" x="871.50159"/>
   <rect stroke="null" width="62.7717" height="37.663" transform="matrix(0.485612 -0.274074 1.23533e-8 0.548149 285.596 204.747)" fill="white" id="svg_41" y="525.45688" x="871.50159"/>
   <rect stroke="null" width="62.7717" height="37.663" transform="matrix(0.485612 -0.274074 1.23533e-8 0.548149 285.596 156.576)" fill="white" id="svg_42" y="525.45688" x="871.50159"/>
   <rect stroke="null" width="62.7717" height="37.663" transform="matrix(0.485612 -0.274074 1.23533e-8 0.548149 285.596 239.156)" fill="white" id="svg_43" y="525.45688" x="871.50159"/>
  </g>
 </g>

</svg>